# xmcd CD database file
#
# Track frame offsets:
#	150
#	18874
#	43444
#	65657
#	84800
#	99225
#	124223
#	137704
#	157149
#	174305
#	191710
#	208962
#
# Disc length: 2987 seconds
#
# Revision: 0
# Processed by: cddbd v1.5.2PL0 Copyright (c) Steve Scherf et al.
# Submitted via: CDex 1.51
#
DISCID=a90ba90c
DTITLE=Gottfried Böttger - Joe Curtis - Reiner Regel - Soul Serenade
DYEAR=1999
DGENRE=Jazz
TTITLE0=I Got A Woman
TTITLE1=His Eye Is On The Sparrow
TTITLE2=Hallelujah, I Love Him So
TTITLE3=God Put A Rainbow In The Cloud
TTITLE4=Didn't It Rain
TTITLE5=Where Can I Go
TTITLE6=Worksong
TTITLE7=Mess Around
TTITLE8=Soul Serenade
TTITLE9=Little Girl Of Mine
TTITLE10=Tears In Heaven
TTITLE11=Kwela
EXTD=YEAR: 1999
EXTT0=
EXTT1=
EXTT2=
EXTT3=
EXTT4=
EXTT5=
EXTT6=
EXTT7=
EXTT8=
EXTT9=
EXTT10=
EXTT11=
PLAYORDER=
